<?xml version="1.0" standalone="no"?><!DOCTYPE svg PUBLIC "-//W3C//DTD SVG 1.1//EN" "http://www.w3.org/Graphics/SVG/1.1/DTD/svg11.dtd"><svg t="1648288749751" class="icon" viewBox="0 0 1024 1024" version="1.1" xmlns="http://www.w3.org/2000/svg" p-id="3014" width="128" height="128" xmlns:xlink="http://www.w3.org/1999/xlink"><defs><style type="text/css"></style></defs><path d="M880.014222 112.014222H144.014222c-17.720889 0-32 14.279111-32 31.971556v736c0 17.720889 14.279111 32 31.971556 32h736c17.720889 0 32-14.279111 32-31.971556V144.014222c0-17.720889-14.279111-32-31.971556-32z m-512 631.978667a8.021333 8.021333 0 0 1-8.021333 8.021333H280.007111a8.021333 8.021333 0 0 1-7.992889-8.021333V280.007111c0-4.408889 3.584-7.992889 7.964445-7.992889h80.014222c4.408889 0 7.992889 3.584 7.992889 7.964445v464.014222z m192-279.978667a8.021333 8.021333 0 0 1-8.021333 7.964445h-79.985778a8.021333 8.021333 0 0 1-8.021333-7.964445v-184.035555c0-4.380444 3.612444-7.964444 8.021333-7.964445h79.985778c4.408889 0 8.021333 3.584 8.021333 7.964445v184.035555z m192 71.964445a8.021333 8.021333 0 0 1-8.021333 8.021333h-79.985778a8.021333 8.021333 0 0 1-8.021333-7.992889v-256c0-4.408889 3.612444-7.992889 8.021333-7.992889h79.985778c4.408889 0 8.021333 3.584 8.021333 7.964445v256z" p-id="3015" fill="#2c2c2c"></path></svg>